<svg xmlns="http://www.w3.org/2000/svg" xmlns:xlink="http://www.w3.org/1999/xlink" width="720" zoomAndPan="magnify" viewBox="0 0 540 959.999988" height="1280" preserveAspectRatio="xMidYMid meet" version="1.0"><defs><clipPath id="c860eb5697"><path d="M 192 493 L 355 493 L 355 616.542969 L 192 616.542969 Z M 192 493 " clip-rule="nonzero"/></clipPath></defs><path fill="#f9c0c4" d="M 402.671875 482.0625 C 402.074219 477.386719 401.113281 472.609375 398.699219 468.558594 C 396.285156 464.507812 392.050781 461.289062 387.332031 461.101562 C 387.765625 460.132812 388.085938 459.125 388.289062 458.082031 C 388.492188 457.039062 388.574219 455.988281 388.535156 454.925781 C 388.496094 453.863281 388.335938 452.820312 388.054688 451.792969 C 387.773438 450.769531 387.382812 449.789062 386.875 448.855469 C 385.789062 446.894531 383.980469 445.105469 381.796875 444.820312 C 382.613281 441.542969 382.878906 438.222656 382.585938 434.859375 C 382.359375 432.613281 381.902344 430.417969 381.207031 428.269531 C 380.515625 426.121094 379.605469 424.070312 378.476562 422.113281 C 377.347656 420.160156 376.023438 418.34375 374.511719 416.671875 C 372.996094 415 371.320312 413.503906 369.488281 412.1875 C 367.984375 411.125 366.410156 410.183594 364.761719 409.367188 C 359.4375 406.710938 353.800781 405.34375 347.851562 405.265625 C 347.964844 404.078125 348 402.890625 347.945312 401.703125 C 347.894531 400.511719 347.761719 399.332031 347.546875 398.160156 C 347.328125 396.988281 347.03125 395.839844 346.65625 394.710938 C 346.277344 393.582031 345.824219 392.484375 345.292969 391.417969 C 344.761719 390.351562 344.160156 389.328125 343.488281 388.34375 C 342.8125 387.363281 342.074219 386.433594 341.269531 385.554688 C 340.464844 384.675781 339.605469 383.859375 338.6875 383.097656 C 337.769531 382.339844 336.804688 381.648438 335.789062 381.027344 C 333.828125 379.855469 331.777344 378.878906 329.632812 378.097656 C 326.1875 376.695312 322.609375 375.859375 318.898438 375.601562 C 313.230469 375.339844 307.613281 377.089844 302.5625 379.6875 C 299.574219 381.246094 296.636719 383.171875 294.773438 385.917969 L 293.355469 385.976562 C 291.09375 382.078125 288.019531 378.996094 284.132812 376.726562 C 282.558594 375.832031 280.90625 375.121094 279.175781 374.59375 C 277.445312 374.066406 275.679688 373.734375 273.875 373.597656 C 272.070312 373.460938 270.273438 373.519531 268.484375 373.78125 C 266.695312 374.039062 264.953125 374.492188 263.265625 375.136719 C 261.25 375.941406 259.382812 377.007812 257.664062 378.332031 C 255.945312 379.652344 254.4375 381.1875 253.144531 382.929688 L 251.496094 382.902344 C 249.589844 380.675781 246.40625 379.921875 243.453125 379.621094 C 236.609375 378.914062 229.429688 379.828125 223.46875 383.253906 C 218.796875 385.917969 215.003906 390.234375 213.273438 395.25 L 211.5625 395.921875 C 209.050781 394.636719 206.09375 394.414062 203.25 394.578125 C 192.347656 395.195312 181.703125 401.515625 176.652344 411.242188 C 175.78125 412.960938 175.089844 414.75 174.578125 416.609375 C 174.066406 418.472656 173.75 420.363281 173.625 422.289062 C 173.496094 424.210938 173.5625 426.128906 173.824219 428.039062 C 174.085938 429.949219 174.539062 431.816406 175.175781 433.632812 C 170.398438 433.695312 165.75 435.753906 162.195312 438.925781 C 160.417969 440.566406 158.878906 442.398438 157.574219 444.433594 C 156.269531 446.464844 155.238281 448.628906 154.488281 450.921875 C 153.449219 453.871094 152.839844 457.007812 153.15625 460.113281 C 153.449219 462.660156 154.222656 465.054688 155.472656 467.292969 C 150.671875 470.570312 146.644531 477.714844 146.714844 483.46875 C 146.78125 489.347656 149.308594 495.003906 152.894531 499.65625 C 154.675781 502.089844 156.878906 504.046875 159.503906 505.535156 L 159.664062 505.988281 C 157.523438 510.285156 157.390625 516.691406 158.210938 521.40625 C 159.058594 526.242188 161.148438 531.070312 165.023438 534.085938 C 167.386719 535.929688 170.265625 536.984375 173.152344 537.789062 C 176.359375 538.683594 179.707031 539.300781 183.019531 538.972656 C 186.332031 538.648438 189.644531 537.292969 191.847656 534.773438 C 193.222656 538.199219 196.117188 540.875 199.410156 542.5625 C 202.703125 544.25 206.398438 544.972656 210.070312 545.355469 C 213.445312 545.703125 216.941406 545.757812 220.144531 544.644531 C 223.101562 543.605469 225.796875 541.484375 226.921875 538.59375 L 227.742188 538.726562 C 231.128906 542.363281 235.097656 545.183594 239.644531 547.183594 C 249.675781 551.566406 264.414062 549.828125 272.074219 545.003906 L 273.167969 545.082031 C 276 548.429688 279.695312 550.675781 286.863281 551.832031 C 289.664062 552.339844 292.488281 552.527344 295.332031 552.394531 C 304.710938 551.808594 314.222656 548.367188 320.550781 541.421875 L 319.710938 541.382812 L 320.496094 540.988281 C 324.496094 542.605469 328.648438 543.296875 332.957031 543.066406 C 335.507812 542.90625 338.011719 542.46875 340.46875 541.753906 C 342.308594 541.285156 344.039062 540.554688 345.660156 539.566406 C 347.066406 538.65625 348.890625 537.488281 349.988281 536.207031 C 350.753906 535.308594 351.460938 534.367188 352.101562 533.375 L 354.105469 533.414062 C 354.742188 533.789062 355.402344 534.121094 356.082031 534.414062 C 357.976562 535.285156 359.933594 535.960938 361.960938 536.433594 C 365.6875 537.242188 369.433594 537.363281 373.199219 536.796875 C 379.953125 535.71875 385.808594 530.917969 388.84375 524.808594 C 391.8125 518.820312 392.191406 511.730469 390.546875 505.25 C 391.375 504.804688 392.195312 504.335938 392.996094 503.851562 C 396.0625 501.992188 399.109375 499.84375 400.949219 496.761719 C 403.503906 492.4375 403.289062 487.0625 402.671875 482.0625 Z M 381.234375 446.863281 C 381.234375 446.863281 381.234375 446.820312 381.234375 446.800781 Z M 348.28125 406.183594 L 347.796875 405.96875 C 347.820312 405.753906 347.847656 405.527344 347.867188 405.304688 Z M 156.710938 469.359375 L 156.511719 470.59375 L 156.03125 468.273438 C 156.253906 468.636719 156.476562 469 156.710938 469.359375 Z M 156.710938 469.359375 " fill-opacity="1" fill-rule="nonzero"/><path fill="#f9afaf" d="M 390.523438 505.238281 C 391.355469 504.792969 392.175781 504.324219 392.976562 503.84375 C 396.039062 501.984375 399.089844 499.832031 400.925781 496.753906 C 403.523438 492.433594 403.289062 487.042969 402.65625 482.054688 C 402.058594 477.382812 401.097656 472.605469 398.683594 468.554688 C 396.269531 464.503906 392.035156 461.285156 387.316406 461.097656 C 387.75 460.128906 388.070312 459.121094 388.273438 458.078125 C 388.476562 457.035156 388.558594 455.980469 388.519531 454.921875 C 388.480469 453.859375 388.320312 452.816406 388.039062 451.789062 C 387.757812 450.765625 387.367188 449.785156 386.859375 448.851562 C 385.773438 446.886719 383.964844 445.101562 381.78125 444.816406 C 382.597656 441.539062 382.863281 438.21875 382.570312 434.855469 C 382.34375 432.609375 381.886719 430.414062 381.195312 428.265625 C 380.503906 426.117188 379.59375 424.066406 378.464844 422.113281 C 377.339844 420.160156 376.019531 418.347656 374.503906 416.671875 C 372.992188 415 371.320312 413.503906 369.488281 412.1875 C 367.984375 411.125 366.410156 410.183594 364.761719 409.367188 C 359.4375 406.710938 353.800781 405.34375 347.851562 405.265625 C 347.964844 404.078125 348 402.890625 347.945312 401.703125 C 347.894531 400.511719 347.761719 399.332031 347.546875 398.160156 C 347.328125 396.988281 347.03125 395.839844 346.65625 394.710938 C 346.277344 393.582031 345.824219 392.484375 345.292969 391.417969 C 344.761719 390.351562 344.160156 389.328125 343.488281 388.34375 C 342.8125 387.363281 342.074219 386.433594 341.269531 385.554688 C 340.464844 384.675781 339.605469 383.859375 338.6875 383.097656 C 337.769531 382.339844 336.804688 381.648438 335.789062 381.027344 C 333.828125 379.855469 331.777344 378.878906 329.632812 378.097656 C 326.1875 376.695312 322.609375 375.859375 318.898438 375.601562 C 314.144531 375.40625 309.410156 376.59375 305.039062 378.523438 C 302.441406 428.546875 279.941406 512.332031 157.03125 503.914062 C 157.804688 504.527344 158.625 505.066406 159.5 505.53125 L 159.660156 505.980469 C 157.519531 510.28125 157.386719 516.683594 158.207031 521.398438 C 159.050781 526.234375 161.144531 531.066406 165.019531 534.082031 C 167.382812 535.925781 170.257812 536.980469 173.148438 537.785156 C 176.355469 538.679688 179.699219 539.296875 183.011719 538.96875 C 186.328125 538.640625 189.640625 537.285156 191.84375 534.769531 C 193.21875 538.195312 196.109375 540.871094 199.402344 542.558594 C 202.695312 544.246094 206.394531 544.96875 210.066406 545.351562 C 213.441406 545.699219 216.9375 545.75 220.140625 544.640625 C 223.09375 543.601562 225.789062 541.476562 226.917969 538.589844 L 227.738281 538.71875 C 231.125 542.355469 235.09375 545.175781 239.640625 547.179688 C 249.667969 551.5625 264.40625 549.824219 272.066406 545 L 273.164062 545.078125 C 275.992188 548.425781 279.691406 550.667969 286.859375 551.828125 C 289.660156 552.335938 292.484375 552.523438 295.328125 552.386719 C 304.707031 551.800781 314.214844 548.363281 320.546875 541.414062 L 319.703125 541.378906 L 320.488281 540.984375 C 324.488281 542.601562 328.644531 543.292969 332.953125 543.0625 C 335.503906 542.902344 338.007812 542.464844 340.460938 541.746094 C 342.304688 541.277344 344.035156 540.550781 345.65625 539.5625 C 347.0625 538.652344 348.886719 537.484375 349.980469 536.199219 C 350.75 535.304688 351.453125 534.363281 352.09375 533.371094 L 354.097656 533.40625 C 354.738281 533.78125 355.398438 534.117188 356.078125 534.410156 C 357.96875 535.28125 359.929688 535.953125 361.957031 536.429688 C 365.679688 537.238281 369.425781 537.359375 373.195312 536.792969 C 379.945312 535.714844 385.804688 530.914062 388.835938 524.800781 C 391.792969 518.8125 392.171875 511.726562 390.523438 505.238281 Z M 347.796875 405.96875 C 347.820312 405.753906 347.847656 405.527344 347.867188 405.304688 L 348.28125 406.183594 Z M 381.21875 446.863281 C 381.21875 446.863281 381.21875 446.820312 381.21875 446.800781 Z M 381.21875 446.863281 " fill-opacity="1" fill-rule="nonzero"/><path fill="#d17c7c" d="M 180.03125 441.882812 C 179.621094 441.507812 179.171875 441.039062 178.765625 440.652344 C 178.65625 440.546875 178.460938 440.332031 178.367188 440.21875 C 178.089844 439.902344 177.488281 439.148438 177.226562 438.847656 C 176.917969 438.417969 176.34375 437.578125 176.039062 437.128906 C 171.394531 429.582031 170.921875 419.722656 174.554688 411.640625 C 180.039062 399.359375 194.515625 391.703125 207.703125 394.242188 C 209.28125 394.585938 210.722656 395.230469 212.027344 396.179688 C 210.597656 395.59375 209.109375 395.269531 207.5625 395.210938 C 197.175781 395.054688 186.664062 400.207031 180.480469 408.4375 C 176.449219 413.703125 174.6875 420.414062 174.980469 427.019531 C 175.066406 428.058594 175.167969 429.324219 175.359375 430.347656 C 175.40625 430.71875 175.476562 431.089844 175.566406 431.453125 C 175.765625 432.492188 176.128906 433.71875 176.429688 434.726562 C 176.554688 435.035156 176.90625 436.007812 177.027344 436.324219 C 177.253906 436.925781 177.699219 437.820312 177.957031 438.402344 C 178.152344 438.761719 178.59375 439.550781 178.792969 439.914062 C 179.164062 440.589844 179.621094 441.210938 180.03125 441.886719 Z M 180.03125 441.882812 " fill-opacity="1" fill-rule="nonzero"/><path fill="#d17c7c" d="M 212.667969 405.007812 C 211.929688 402.984375 211.59375 400.894531 211.660156 398.742188 C 211.726562 396.585938 212.191406 394.523438 213.050781 392.546875 C 216.121094 384.980469 223.640625 379.867188 231.558594 378.523438 C 236.910156 377.542969 246.777344 377.738281 250.742188 381.832031 C 251.152344 382.273438 251.5 382.757812 251.78125 383.292969 C 250.941406 382.5 249.976562 381.910156 248.882812 381.53125 C 247.820312 381.179688 246.734375 380.949219 245.617188 380.839844 C 239.527344 380.378906 233.207031 381.007812 227.515625 383.265625 C 218.765625 386.722656 212.011719 395.140625 212.667969 405.007812 Z M 212.667969 405.007812 " fill-opacity="1" fill-rule="nonzero"/><path fill="#d17c7c" d="M 248.367188 391.226562 C 248.386719 391.308594 248.4375 391.371094 248.507812 391.414062 C 248.578125 391.457031 248.65625 391.46875 248.738281 391.449219 C 249.078125 391.414062 249.140625 391.054688 249.179688 390.765625 C 249.304688 389.890625 249.476562 389.023438 249.699219 388.167969 C 253.699219 374.472656 268.875 368.28125 281.730469 373.746094 C 289.753906 377.035156 295.796875 385.269531 296.375 393.769531 C 292.875 383.535156 283.828125 375.671875 272.960938 375.304688 C 263.613281 374.742188 254.816406 380.203125 250.628906 388.515625 L 250.167969 389.429688 C 249.921875 390.097656 249.628906 390.742188 249.285156 391.363281 C 249.046875 391.6875 248.375 391.679688 248.367188 391.214844 Z M 248.367188 391.226562 " fill-opacity="1" fill-rule="nonzero"/><path fill="#d17c7c" d="M 294.132812 387.015625 C 296.511719 381.054688 304.453125 377.082031 310.320312 375.199219 C 317.414062 372.984375 324.132812 374 330.910156 376.710938 C 334.261719 377.949219 337.292969 379.726562 340.003906 382.050781 C 348.058594 388.914062 351.085938 401.09375 346.757812 410.613281 C 348.746094 400.8125 345.433594 390.75 337.835938 384.589844 C 335.34375 382.605469 332.605469 381.070312 329.613281 379.984375 C 325.179688 378.222656 320.515625 376.925781 315.714844 377.214844 C 310.917969 377.507812 306.234375 379.007812 301.804688 381.0625 C 298.839844 382.449219 295.992188 384.285156 294.117188 387.023438 Z M 294.132812 387.015625 " fill-opacity="1" fill-rule="nonzero"/><path fill="#d17c7c" d="M 347.847656 405.265625 C 357.539062 404.304688 368.101562 407.796875 375.074219 414.867188 C 382.894531 422.65625 386.277344 434.601562 382.988281 445.242188 C 382.257812 447.640625 381.246094 449.914062 379.953125 452.058594 C 378.242188 454.894531 376.078125 457.316406 373.453125 459.332031 C 380.527344 450.792969 383.066406 439.222656 379.578125 428.820312 C 374.902344 414.839844 362.101562 407.0625 347.847656 405.25 Z M 347.847656 405.265625 " fill-opacity="1" fill-rule="nonzero"/><path fill="#d17c7c" d="M 381.269531 444.789062 C 383.925781 444.609375 386.21875 446.632812 387.503906 448.789062 C 388.429688 450.328125 389.046875 451.980469 389.351562 453.75 C 389.65625 455.519531 389.628906 457.285156 389.269531 459.046875 C 389.082031 459.933594 388.816406 460.800781 388.472656 461.640625 L 387.347656 459.8125 C 388.960938 459.828125 390.519531 460.132812 392.019531 460.726562 C 399.515625 463.707031 402.925781 471.632812 403.992188 479.117188 C 404.496094 482.03125 404.75 484.96875 404.75 487.925781 C 404.59375 497.085938 400.074219 501.515625 392.253906 505.382812 C 388.417969 507.320312 383.945312 508.878906 379.640625 507.949219 C 385.351562 507.949219 390.292969 504.554688 394.730469 501.316406 C 401.160156 496.644531 401.972656 491.257812 401.125 483.820312 C 400.484375 478.519531 399.632812 472.917969 396.605469 468.417969 C 394.476562 465.304688 391.128906 462.738281 387.257812 462.40625 C 387.152344 462.402344 387.046875 462.390625 386.941406 462.359375 C 386.839844 462.332031 386.742188 462.292969 386.648438 462.238281 C 386.554688 462.1875 386.46875 462.125 386.394531 462.050781 C 386.316406 461.972656 386.25 461.890625 386.191406 461.800781 C 386.136719 461.710938 386.09375 461.613281 386.0625 461.511719 C 386.027344 461.410156 386.011719 461.304688 386.003906 461.195312 C 386 461.089844 386.007812 460.984375 386.027344 460.878906 C 386.050781 460.773438 386.085938 460.671875 386.132812 460.578125 C 386.558594 459.710938 386.890625 458.804688 387.121094 457.867188 C 387.355469 456.925781 387.480469 455.972656 387.503906 455.007812 C 387.53125 454.039062 387.449219 453.082031 387.261719 452.132812 C 387.078125 451.179688 386.792969 450.261719 386.40625 449.375 C 385.460938 447.214844 383.730469 445.128906 381.261719 444.789062 Z M 381.269531 444.789062 " fill-opacity="1" fill-rule="nonzero"/><path fill="#d17c7c" d="M 352.117188 532.082031 C 354.375 533.398438 356.902344 534.160156 359.386719 534.820312 C 361.855469 535.421875 364.359375 535.722656 366.902344 535.71875 C 369.390625 535.761719 371.839844 535.480469 374.253906 534.882812 C 376.597656 534.195312 378.761719 533.144531 380.746094 531.722656 C 382.730469 530.300781 384.425781 528.59375 385.832031 526.597656 C 389.523438 521.472656 390.878906 515.035156 390.707031 508.761719 C 390.664062 507.445312 390.546875 506.164062 390.40625 504.832031 C 391.066406 506.410156 391.570312 508.03125 391.914062 509.707031 C 392.253906 511.378906 392.433594 513.070312 392.445312 514.777344 C 392.453125 516.488281 392.300781 518.179688 391.980469 519.859375 C 391.65625 521.535156 391.175781 523.167969 390.535156 524.75 C 387.613281 531.925781 380.757812 537.601562 372.957031 538.476562 C 370.554688 538.746094 368.15625 538.710938 365.765625 538.371094 C 363.371094 538.03125 361.0625 537.394531 358.832031 536.460938 C 356.398438 535.339844 353.980469 534.066406 352.117188 532.109375 Z M 352.117188 532.082031 " fill-opacity="1" fill-rule="nonzero"/><path fill="#d17c7c" d="M 315.878906 538.625 C 323.257812 541.824219 331.128906 542.535156 338.753906 540.414062 C 340.835938 539.945312 342.804688 539.183594 344.664062 538.132812 C 346.160156 537.183594 347.617188 536.339844 348.816406 535.101562 C 352.972656 530.632812 355.199219 525.132812 356.917969 519.144531 C 357.132812 524.957031 355.570312 531.183594 352.070312 536.070312 C 350.703125 538.175781 348.5625 539.707031 346.546875 541.042969 C 344.410156 542.441406 342.015625 543.179688 339.609375 543.769531 C 331.535156 545.84375 322.152344 544.167969 315.894531 538.625 Z M 315.878906 538.625 " fill-opacity="1" fill-rule="nonzero"/><path fill="#d17c7c" d="M 320.539062 541.410156 C 313.246094 551.484375 298.257812 555.785156 286.347656 553.503906 C 282.578125 552.867188 278.601562 551.597656 275.546875 549.105469 C 272.492188 546.613281 270.648438 543.03125 269.410156 539.484375 C 271.066406 541.359375 272.601562 543.296875 274.351562 544.859375 C 276.0625 546.410156 278 547.585938 280.164062 548.382812 C 284.640625 549.878906 289.238281 550.667969 293.957031 550.753906 C 303.53125 550.628906 313.144531 547.8125 320.539062 541.40625 Z M 320.539062 541.410156 " fill-opacity="1" fill-rule="nonzero"/><path fill="#d17c7c" d="M 221.652344 529.980469 C 226.703125 536.90625 233.269531 542.71875 241.234375 545.933594 C 246.871094 548.058594 252.964844 548.484375 259.039062 548.011719 C 263.960938 547.554688 268.867188 546.582031 273.273438 544.167969 C 271.363281 545.929688 269.207031 547.296875 266.800781 548.273438 C 258.402344 551.734375 248.578125 552.355469 239.972656 549.203125 C 231.507812 545.855469 224.347656 538.742188 221.652344 529.988281 Z M 221.652344 529.980469 " fill-opacity="1" fill-rule="nonzero"/><path fill="#d17c7c" d="M 227.171875 537.816406 C 226.476562 541.453125 223.328125 544.238281 219.902344 545.476562 C 216.472656 546.710938 212.628906 546.757812 208.996094 546.464844 C 203.433594 546.027344 197.628906 544.386719 193.5625 540.320312 C 192.132812 538.90625 191.035156 537.269531 190.269531 535.410156 L 193.152344 535.894531 C 192.207031 536.988281 191.109375 537.898438 189.859375 538.621094 C 183.890625 542.121094 176.59375 540.832031 170.410156 538.648438 C 162.058594 535.921875 157.945312 529.027344 157.183594 520.578125 C 156.796875 515.597656 157.183594 510.246094 159.746094 505.855469 C 157.980469 510.441406 158.152344 515.578125 158.988281 520.324219 C 160.449219 527.710938 163.953125 533.382812 171.453125 535.5625 C 175.773438 536.882812 180.683594 537.996094 185.089844 536.828125 C 187.230469 536.320312 189.050781 535.261719 190.550781 533.652344 C 190.644531 533.539062 190.753906 533.441406 190.871094 533.355469 C 190.992188 533.269531 191.125 533.203125 191.261719 533.152344 C 191.398438 533.101562 191.542969 533.070312 191.6875 533.054688 C 191.835938 533.042969 191.980469 533.046875 192.128906 533.070312 C 192.273438 533.09375 192.414062 533.136719 192.546875 533.199219 C 192.683594 533.261719 192.804688 533.335938 192.921875 533.429688 C 193.035156 533.523438 193.136719 533.628906 193.222656 533.75 C 193.308594 533.867188 193.378906 533.996094 193.429688 534.132812 C 194.023438 535.589844 194.859375 536.882812 195.945312 538.019531 C 199.394531 541.679688 204.4375 543.238281 209.324219 544 C 214.363281 544.804688 219.824219 545.121094 224.046875 541.898438 C 225.464844 540.828125 226.503906 539.46875 227.160156 537.816406 Z M 227.171875 537.816406 " fill-opacity="1" fill-rule="nonzero"/><path fill="#d17c7c" d="M 164.070312 506.890625 C 157.222656 507.4375 151.734375 501.410156 148.515625 496.015625 C 145.085938 490.085938 143.691406 482.738281 146.851562 476.4375 C 147.667969 474.679688 148.714844 473.066406 149.988281 471.605469 C 151.265625 470.144531 152.71875 468.894531 154.351562 467.847656 C 154.816406 467.570312 155.296875 467.324219 155.789062 467.109375 C 154.253906 468.542969 152.949219 470.160156 151.875 471.964844 C 149.855469 475.320312 148.328125 479.28125 148.34375 483.152344 C 148.414062 485.109375 148.722656 487.03125 149.269531 488.910156 C 151.277344 495.632812 156.78125 505.066406 164.070312 506.917969 Z M 164.070312 506.890625 " fill-opacity="1" fill-rule="nonzero"/><path fill="#d17c7c" d="M 162.078125 476.308594 C 156.511719 471.582031 151.113281 465.183594 151.429688 457.460938 C 151.949219 447.691406 158.375 437.234375 168 434.269531 C 169.476562 433.804688 170.992188 433.542969 172.539062 433.480469 C 173.449219 433.449219 174.355469 433.496094 175.261719 433.617188 C 165.820312 435.175781 159.222656 442.570312 156.230469 451.191406 C 155.117188 454.308594 154.398438 457.570312 154.796875 460.847656 C 155.519531 466.613281 159.128906 471.46875 162.070312 476.316406 Z M 162.078125 476.308594 " fill-opacity="1" fill-rule="nonzero"/><path fill="#d17c7c" d="M 184.847656 455.148438 C 180.921875 454.605469 176.949219 457.660156 174.460938 460.425781 C 173.320312 461.746094 172.382812 463.199219 171.644531 464.777344 C 166.898438 474.597656 172.527344 486.023438 182.613281 489.578125 C 180.496094 489.214844 178.515625 488.480469 176.671875 487.378906 C 174.832031 486.273438 173.25 484.875 171.929688 483.179688 C 166.140625 475.992188 167.007812 465.894531 173.394531 459.414062 C 176.148438 456.667969 180.878906 453.789062 184.847656 455.148438 Z M 184.847656 455.148438 " fill-opacity="1" fill-rule="nonzero"/><path fill="#d17c7c" d="M 203.808594 485.074219 C 200.242188 484.234375 196.722656 484.390625 193.246094 485.542969 C 189.851562 486.660156 186.675781 488.214844 183.714844 490.214844 C 178.992188 493.417969 176.71875 497.4375 176.066406 503.078125 C 175.609375 506.5625 176.019531 509.945312 177.285156 513.222656 C 177.96875 514.8125 178.878906 516.257812 180.023438 517.554688 C 181.164062 518.851562 182.484375 519.941406 183.972656 520.820312 C 189.738281 524.59375 197.113281 527.570312 203.886719 524.78125 C 205.574219 524.113281 207.046875 523.121094 208.292969 521.800781 C 206.097656 524.769531 202.441406 526.421875 198.804688 526.796875 C 195.171875 527.171875 191.359375 526.277344 187.972656 524.792969 C 184.585938 523.304688 181.289062 521.476562 178.65625 518.742188 C 174.734375 514.519531 173.464844 508.417969 174.210938 502.835938 C 174.917969 496.808594 177.695312 492.148438 182.894531 488.957031 C 186.042969 487.007812 189.410156 485.566406 192.996094 484.644531 C 194.777344 484.175781 196.589844 483.976562 198.433594 484.050781 C 200.277344 484.125 202.066406 484.464844 203.808594 485.074219 Z M 203.808594 485.074219 " fill-opacity="1" fill-rule="nonzero"/><path fill="#d17c7c" d="M 353.726562 428.710938 C 357.359375 428.710938 361.285156 428.839844 364.632812 430.570312 C 368.730469 432.648438 371.222656 437.058594 372.058594 441.476562 C 372.929688 446.507812 372.75 453.25 369.980469 457.652344 C 367.046875 462.425781 361.484375 465.261719 355.957031 465.441406 C 353.234375 465.546875 350.585938 465.148438 348.011719 464.253906 C 350.621094 464.746094 353.246094 464.832031 355.882812 464.507812 C 360.902344 463.910156 365.855469 461.144531 368.40625 456.71875 C 370.785156 452.671875 370.945312 446.382812 370.253906 441.804688 C 369.648438 438.070312 367.886719 434.417969 364.8125 432.144531 C 361.613281 429.792969 357.542969 429.328125 353.695312 428.730469 Z M 353.726562 428.710938 " fill-opacity="1" fill-rule="nonzero"/><path fill="#d17c7c" d="M 357.78125 464.15625 C 357.96875 464.25 358.160156 464.261719 358.359375 464.191406 C 359.273438 464.003906 360.066406 463.449219 361.03125 463.453125 C 365.261719 464.085938 366.359375 470.726562 365.304688 474.136719 C 364.855469 475.792969 363.894531 477.515625 362.324219 478.292969 C 364.074219 475.535156 364.054688 472.296875 363.585938 469.234375 C 363.199219 467.390625 362.648438 465.1875 360.859375 464.257812 C 360.078125 464.171875 359.1875 464.441406 358.367188 464.363281 C 358.164062 464.363281 357.902344 464.328125 357.78125 464.132812 Z M 357.78125 464.15625 " fill-opacity="1" fill-rule="nonzero"/><path fill="#d17c7c" d="M 348.625 449.757812 C 346.144531 451.582031 343.527344 453.453125 341.832031 456.046875 C 337.570312 462.800781 340.316406 471.351562 345.988281 476.375 C 347.101562 477.40625 348.296875 478.332031 349.570312 479.160156 C 349.75 479.277344 349.875 479.441406 349.945312 479.644531 C 350.011719 479.851562 350.011719 480.054688 349.941406 480.257812 C 348.339844 484.820312 346.5625 489.605469 347.457031 494.464844 C 347.859375 496.605469 348.667969 498.578125 349.882812 500.386719 C 351.097656 502.195312 352.617188 503.691406 354.449219 504.875 C 359.894531 508.328125 367.222656 507.867188 372.453125 504.035156 C 371.886719 504.542969 371.292969 505.015625 370.671875 505.453125 C 368.492188 506.886719 366.109375 507.75 363.519531 508.046875 C 356.1875 508.953125 349.347656 504.617188 346.585938 497.832031 C 343.988281 491.90625 346.015625 485.300781 348.183594 479.609375 L 348.546875 480.707031 C 345.777344 478.921875 343.457031 476.671875 341.589844 473.953125 C 337.855469 468.640625 337.132812 460.898438 341.15625 455.550781 C 343.109375 452.953125 345.890625 451.316406 348.632812 449.742188 Z M 348.625 449.757812 " fill-opacity="1" fill-rule="nonzero"/><path fill="#ffffff" d="M 359.234375 433.574219 C 359.894531 433.878906 360.523438 434.234375 361.125 434.640625 C 361.730469 435.042969 362.296875 435.492188 362.832031 435.984375 C 363.367188 436.472656 363.863281 437.003906 364.316406 437.570312 C 364.769531 438.136719 365.179688 438.734375 365.542969 439.363281 C 365.902344 439.992188 366.21875 440.644531 366.480469 441.320312 C 366.742188 441.996094 366.953125 442.6875 367.109375 443.398438 C 367.265625 444.105469 367.371094 444.824219 367.417969 445.546875 C 367.464844 446.273438 367.457031 446.996094 367.394531 447.71875 C 367.046875 451.546875 365.753906 455.597656 362.605469 458.070312 C 361.324219 459.117188 359.886719 459.859375 358.289062 460.296875 C 356.691406 460.730469 355.078125 460.824219 353.441406 460.578125 L 353.441406 460.390625 C 356.457031 459.921875 359.097656 458.664062 361.359375 456.613281 C 363.101562 454.984375 364.386719 453.050781 365.207031 450.808594 C 365.351562 450.289062 365.546875 449.734375 365.664062 449.210938 C 365.910156 448.121094 366.058594 447.015625 366.105469 445.902344 C 366.292969 440.921875 363.402344 436.304688 359.152344 433.738281 L 359.234375 433.566406 Z M 359.234375 433.574219 " fill-opacity="1" fill-rule="nonzero"/><path fill="#d17c7c" d="M 300.109375 538.53125 C 302.210938 539.300781 304.339844 539.382812 306.492188 538.78125 C 310.773438 537.710938 314.839844 536.746094 317.273438 532.808594 C 318.421875 530.914062 319.386719 528.929688 320.175781 526.859375 C 320.101562 529.199219 319.570312 531.429688 318.582031 533.550781 C 316.976562 536.992188 313.753906 538.921875 310.144531 539.679688 C 306.707031 540.445312 303.015625 540.988281 300.109375 538.53125 Z M 300.109375 538.53125 " fill-opacity="1" fill-rule="nonzero"/><path fill="#d17c7c" d="M 260.339844 532.078125 C 260.113281 532.027344 259.890625 531.957031 259.664062 531.902344 L 259.800781 531.652344 C 263.035156 532.847656 266.34375 534.347656 269.703125 534.769531 C 271.375 534.9375 273.023438 534.816406 274.652344 534.410156 C 276.359375 533.980469 277.964844 533.308594 279.46875 532.398438 C 277.300781 535.480469 273.234375 537.039062 269.515625 536.667969 C 267.628906 536.441406 265.847656 535.871094 264.171875 534.964844 C 262.527344 534.144531 261.019531 533.125 259.648438 531.902344 C 259.609375 531.878906 259.582031 531.84375 259.574219 531.796875 C 259.5625 531.75 259.574219 531.710938 259.601562 531.671875 C 259.664062 531.609375 259.726562 531.609375 259.789062 531.671875 C 259.972656 531.8125 260.160156 531.953125 260.339844 532.105469 Z M 260.339844 532.078125 " fill-opacity="1" fill-rule="nonzero"/><path fill="#ffffff" d="M 181.726562 459.324219 C 177.570312 463.324219 174.90625 469.65625 177.109375 475.257812 C 177.699219 476.851562 178.328125 478.460938 179.007812 480.019531 C 179.742188 481.722656 180.59375 483.339844 181.273438 485.089844 L 181.039062 485.308594 C 179.894531 484.667969 178.855469 483.882812 177.925781 482.960938 C 175.933594 481.054688 174.652344 478.757812 174.082031 476.0625 C 173.691406 474.070312 173.679688 472.070312 174.046875 470.074219 C 174.414062 468.074219 175.136719 466.210938 176.210938 464.488281 C 177.605469 462.296875 179.386719 460.492188 181.558594 459.070312 L 181.746094 459.324219 Z M 181.726562 459.324219 " fill-opacity="1" fill-rule="nonzero"/><path fill="#ffffff" d="M 181.070312 498.234375 C 180.527344 503.851562 181.242188 510.179688 185.007812 514.582031 C 187.085938 516.886719 190.023438 517.992188 192.855469 519.042969 C 195.304688 519.863281 197.792969 520.324219 200.308594 520.996094 L 200.308594 521.3125 C 198.425781 521.9375 196.496094 522.226562 194.515625 522.179688 C 193.078125 522.191406 191.675781 521.984375 190.300781 521.558594 C 188.929688 521.132812 187.65625 520.507812 186.476562 519.679688 C 182.480469 516.792969 180.246094 512.082031 179.882812 507.253906 C 179.632812 504.171875 179.921875 501.140625 180.75 498.160156 L 181.054688 498.234375 Z M 181.070312 498.234375 " fill-opacity="1" fill-rule="nonzero"/><path fill="#ffffff" d="M 154.984375 477.195312 C 154.800781 478.6875 154.777344 480.183594 154.914062 481.683594 C 155.054688 483.183594 155.351562 484.648438 155.808594 486.082031 C 156.261719 487.515625 156.867188 488.886719 157.621094 490.191406 C 158.371094 491.492188 159.253906 492.703125 160.265625 493.8125 C 161.894531 495.5625 163.382812 497.34375 165.003906 499.136719 C 165.839844 500.082031 166.6875 500.996094 167.464844 502.03125 L 167.292969 502.300781 C 166.652344 502.152344 166.023438 501.960938 165.402344 501.734375 C 163.855469 501.144531 162.429688 500.339844 161.125 499.316406 C 159.824219 498.292969 158.703125 497.101562 157.765625 495.734375 C 155.6875 492.402344 154.097656 488.664062 153.808594 484.714844 C 153.566406 482.125 153.859375 479.59375 154.679688 477.121094 L 154.984375 477.210938 Z M 154.984375 477.195312 " fill-opacity="1" fill-rule="nonzero"/><path fill="#ffffff" d="M 163.164062 512.742188 C 163.492188 518.746094 165.796875 525.332031 171.378906 528.214844 C 171.816406 528.441406 172.300781 528.609375 172.75 528.796875 L 173.941406 529.160156 C 177.226562 529.96875 180.558594 530.488281 183.933594 530.71875 C 184.664062 530.765625 185.40625 530.824219 186.171875 530.949219 L 186.226562 531.261719 C 182.488281 533.125 177.832031 533.769531 173.765625 532.46875 C 172.046875 531.871094 170.476562 531.007812 169.054688 529.878906 C 167.628906 528.753906 166.429688 527.421875 165.457031 525.886719 C 163.078125 521.960938 162.339844 517.167969 162.859375 512.710938 L 163.175781 512.738281 Z M 163.164062 512.742188 " fill-opacity="1" fill-rule="nonzero"/><path fill="#ffffff" d="M 172.492188 439.039062 C 170.503906 440.734375 168.765625 442.652344 167.277344 444.796875 C 165.785156 446.945312 164.59375 449.242188 163.699219 451.695312 C 162.890625 454.085938 162.769531 456.578125 162.46875 459.050781 C 162.179688 461.617188 162.230469 464.242188 162.136719 466.839844 L 161.835938 466.933594 C 161.429688 466.355469 161.074219 465.746094 160.765625 465.109375 C 159.992188 463.492188 159.523438 461.789062 159.359375 460.003906 C 159.191406 458.21875 159.339844 456.457031 159.804688 454.722656 C 161.023438 450.632812 163.082031 447.023438 165.988281 443.898438 C 167.84375 441.871094 169.953125 440.164062 172.316406 438.765625 L 172.492188 439.03125 Z M 172.492188 439.039062 " fill-opacity="1" fill-rule="nonzero"/><path fill="#ffffff" d="M 204.710938 401.261719 C 197.960938 403.628906 191.539062 407.625 187.453125 413.558594 C 185.148438 416.980469 184.160156 421.03125 183.429688 425.035156 C 183.386719 425.460938 183.242188 426.554688 183.183594 426.988281 C 183.128906 427.417969 183.121094 427.871094 183.085938 428.3125 C 182.914062 430.148438 182.972656 431.945312 182.867188 433.796875 L 182.5625 433.867188 C 181.84375 432.355469 181.308594 430.78125 180.957031 429.140625 C 180.148438 425.078125 180.4375 420.738281 182.246094 416.964844 C 184.003906 413.445312 186.410156 410.441406 189.453125 407.949219 C 193.953125 404.398438 199.015625 402.066406 204.636719 400.949219 Z M 204.710938 401.261719 " fill-opacity="1" fill-rule="nonzero"/><path fill="#ffffff" d="M 345.84375 456.65625 C 345.308594 458.382812 345.027344 460.148438 345 461.957031 C 344.972656 463.765625 345.195312 465.539062 345.675781 467.28125 C 346.25 468.929688 347.0625 470.449219 348.105469 471.847656 C 349.171875 473.285156 350.351562 474.625 351.648438 475.859375 L 351.566406 476 C 350.660156 475.699219 349.808594 475.277344 349.019531 474.738281 C 344.015625 471.488281 343.273438 464.539062 344.761719 459.214844 C 345 458.324219 345.3125 457.460938 345.695312 456.621094 L 345.84375 456.675781 Z M 345.84375 456.65625 " fill-opacity="1" fill-rule="nonzero"/><path fill="#ffffff" d="M 353.164062 484.050781 C 352.644531 488.265625 352.644531 493.222656 355.351562 496.703125 C 356.121094 497.589844 357.050781 498.257812 358.140625 498.695312 C 358.894531 498.988281 359.605469 499.304688 360.394531 499.535156 C 362.472656 500.253906 364.757812 500.542969 366.917969 501.132812 L 366.953125 501.449219 C 365.847656 502.015625 364.679688 502.40625 363.453125 502.617188 C 359.195312 503.308594 355.585938 501.894531 353.269531 498.175781 C 351.234375 494.941406 351.191406 490.972656 351.898438 487.367188 C 352.125 486.207031 352.445312 485.070312 352.859375 483.960938 Z M 353.164062 484.050781 " fill-opacity="1" fill-rule="nonzero"/><path fill="#1e3b77" d="M 255.421875 431.546875 C 248.921875 428.226562 240.285156 427.507812 233.585938 430.414062 C 232.8125 430.726562 232.089844 431.128906 231.414062 431.613281 C 230.738281 432.101562 230.128906 432.660156 229.585938 433.292969 C 229.046875 433.925781 228.585938 434.613281 228.207031 435.355469 C 227.828125 436.097656 227.546875 436.875 227.351562 437.683594 C 227.246094 438.28125 227.203125 438.886719 227.222656 439.492188 L 227.660156 439.652344 C 229.789062 438.277344 231.554688 436.714844 233.640625 435.339844 L 236.363281 433.453125 C 239.140625 431.375 243.15625 430.707031 247.015625 430.738281 C 249.800781 430.769531 252.539062 431.136719 255.234375 431.84375 L 255.445312 431.519531 Z M 255.421875 431.546875 " fill-opacity="1" fill-rule="nonzero"/><path fill="#1e3b77" d="M 291.597656 430.34375 C 297.882812 426.628906 306.457031 425.367188 313.324219 427.855469 C 314.113281 428.121094 314.867188 428.472656 315.574219 428.917969 C 316.28125 429.363281 316.925781 429.886719 317.507812 430.484375 C 318.089844 431.085938 318.59375 431.746094 319.019531 432.464844 C 319.441406 433.1875 319.773438 433.945312 320.015625 434.746094 C 320.160156 435.335938 320.242188 435.933594 320.261719 436.542969 L 319.835938 436.730469 C 317.621094 435.488281 315.761719 434.039062 313.601562 432.792969 L 310.75 431.085938 C 307.847656 429.203125 303.804688 428.761719 299.949219 429.035156 C 297.171875 429.242188 294.460938 429.78125 291.816406 430.652344 L 291.589844 430.34375 Z M 291.597656 430.34375 " fill-opacity="1" fill-rule="nonzero"/><path fill="#ffffff" d="M 250.863281 441.800781 C 251.464844 441.804688 252.066406 441.851562 252.664062 441.941406 C 253.265625 442.027344 253.859375 442.152344 254.449219 442.316406 C 255.039062 442.484375 255.617188 442.6875 256.191406 442.929688 C 256.765625 443.171875 257.332031 443.453125 257.882812 443.773438 C 258.4375 444.089844 258.976562 444.441406 259.503906 444.832031 C 260.03125 445.222656 260.542969 445.648438 261.039062 446.105469 C 261.535156 446.5625 262.011719 447.050781 262.472656 447.574219 C 262.933594 448.09375 263.371094 448.644531 263.792969 449.226562 C 264.210938 449.808594 264.609375 450.414062 264.984375 451.046875 C 265.359375 451.679688 265.710938 452.339844 266.039062 453.019531 C 266.363281 453.699219 266.667969 454.398438 266.941406 455.121094 C 267.21875 455.839844 267.46875 456.578125 267.6875 457.335938 C 267.910156 458.089844 268.105469 458.855469 268.269531 459.636719 C 268.4375 460.417969 268.574219 461.207031 268.683594 462.007812 C 268.789062 462.808594 268.871094 463.613281 268.917969 464.421875 C 268.96875 465.234375 268.988281 466.046875 268.980469 466.859375 C 268.972656 467.671875 268.933594 468.484375 268.863281 469.292969 C 268.796875 470.101562 268.699219 470.90625 268.570312 471.703125 C 268.445312 472.5 268.289062 473.285156 268.105469 474.0625 C 267.921875 474.839844 267.710938 475.601562 267.46875 476.351562 C 267.230469 477.101562 266.964844 477.832031 266.671875 478.546875 C 266.378906 479.261719 266.0625 479.957031 265.71875 480.628906 C 265.378906 481.300781 265.011719 481.949219 264.621094 482.574219 C 264.230469 483.199219 263.820312 483.796875 263.386719 484.367188 C 262.953125 484.9375 262.503906 485.476562 262.03125 485.988281 C 261.558594 486.5 261.070312 486.980469 260.5625 487.425781 C 260.058594 487.871094 259.535156 488.285156 259 488.660156 C 258.464844 489.039062 257.914062 489.378906 257.355469 489.683594 C 256.792969 489.988281 256.222656 490.257812 255.644531 490.488281 C 255.066406 490.714844 254.480469 490.90625 253.886719 491.058594 C 253.292969 491.210938 252.695312 491.324219 252.09375 491.394531 C 251.496094 491.46875 250.894531 491.503906 250.289062 491.496094 C 249.6875 491.488281 249.085938 491.441406 248.488281 491.355469 C 247.890625 491.269531 247.292969 491.140625 246.707031 490.976562 C 246.117188 490.8125 245.535156 490.605469 244.960938 490.363281 C 244.386719 490.121094 243.824219 489.839844 243.269531 489.523438 C 242.714844 489.203125 242.175781 488.851562 241.648438 488.460938 C 241.121094 488.070312 240.609375 487.648438 240.113281 487.191406 C 239.617188 486.730469 239.140625 486.242188 238.679688 485.71875 C 238.21875 485.199219 237.78125 484.648438 237.359375 484.066406 C 236.941406 483.488281 236.542969 482.878906 236.167969 482.246094 C 235.792969 481.613281 235.441406 480.957031 235.117188 480.277344 C 234.789062 479.59375 234.488281 478.894531 234.210938 478.171875 C 233.933594 477.453125 233.6875 476.714844 233.464844 475.960938 C 233.242188 475.207031 233.046875 474.4375 232.882812 473.65625 C 232.714844 472.875 232.578125 472.085938 232.472656 471.285156 C 232.363281 470.488281 232.285156 469.683594 232.234375 468.871094 C 232.183594 468.0625 232.164062 467.25 232.171875 466.433594 C 232.183594 465.621094 232.222656 464.808594 232.289062 464 C 232.359375 463.191406 232.457031 462.386719 232.582031 461.589844 C 232.710938 460.792969 232.863281 460.007812 233.046875 459.230469 C 233.234375 458.453125 233.445312 457.691406 233.683594 456.941406 C 233.921875 456.191406 234.1875 455.460938 234.480469 454.746094 C 234.773438 454.03125 235.089844 453.339844 235.433594 452.664062 C 235.777344 451.992188 236.140625 451.34375 236.53125 450.71875 C 236.921875 450.09375 237.332031 449.496094 237.765625 448.925781 C 238.199219 448.355469 238.652344 447.816406 239.121094 447.304688 C 239.59375 446.792969 240.082031 446.316406 240.589844 445.867188 C 241.097656 445.421875 241.617188 445.011719 242.152344 444.632812 C 242.691406 444.253906 243.238281 443.914062 243.796875 443.609375 C 244.359375 443.304688 244.929688 443.035156 245.507812 442.808594 C 246.085938 442.578125 246.675781 442.386719 247.265625 442.234375 C 247.859375 442.082031 248.457031 441.972656 249.058594 441.898438 C 249.660156 441.824219 250.261719 441.792969 250.863281 441.800781 Z M 250.863281 441.800781 " fill-opacity="1" fill-rule="nonzero"/><path fill="#ffffff" d="M 296.261719 442.328125 C 296.863281 442.335938 297.464844 442.378906 298.0625 442.46875 C 298.660156 442.554688 299.257812 442.679688 299.84375 442.847656 C 300.433594 443.011719 301.015625 443.214844 301.589844 443.457031 C 302.164062 443.703125 302.726562 443.980469 303.28125 444.300781 C 303.835938 444.617188 304.375 444.972656 304.902344 445.359375 C 305.429688 445.75 305.941406 446.175781 306.4375 446.632812 C 306.933594 447.089844 307.410156 447.582031 307.871094 448.101562 C 308.332031 448.625 308.769531 449.175781 309.191406 449.753906 C 309.609375 450.335938 310.007812 450.941406 310.382812 451.574219 C 310.757812 452.210938 311.109375 452.867188 311.433594 453.546875 C 311.761719 454.226562 312.0625 454.929688 312.339844 455.648438 C 312.617188 456.371094 312.863281 457.109375 313.085938 457.863281 C 313.308594 458.617188 313.503906 459.382812 313.667969 460.164062 C 313.835938 460.945312 313.972656 461.734375 314.082031 462.535156 C 314.1875 463.335938 314.269531 464.140625 314.316406 464.949219 C 314.367188 465.761719 314.386719 466.574219 314.378906 467.386719 C 314.367188 468.199219 314.328125 469.011719 314.261719 469.820312 C 314.191406 470.628906 314.09375 471.433594 313.96875 472.230469 C 313.839844 473.027344 313.6875 473.8125 313.503906 474.589844 C 313.320312 475.367188 313.105469 476.128906 312.867188 476.878906 C 312.628906 477.628906 312.363281 478.359375 312.070312 479.074219 C 311.777344 479.789062 311.460938 480.484375 311.117188 481.15625 C 310.773438 481.828125 310.410156 482.476562 310.019531 483.101562 C 309.628906 483.726562 309.21875 484.324219 308.785156 484.894531 C 308.351562 485.464844 307.898438 486.007812 307.429688 486.515625 C 306.957031 487.027344 306.46875 487.507812 305.960938 487.953125 C 305.453125 488.398438 304.933594 488.8125 304.398438 489.1875 C 303.863281 489.566406 303.3125 489.90625 302.753906 490.210938 C 302.191406 490.519531 301.621094 490.785156 301.042969 491.015625 C 300.464844 491.246094 299.878906 491.433594 299.285156 491.585938 C 298.691406 491.738281 298.09375 491.851562 297.492188 491.925781 C 296.894531 491.996094 296.289062 492.03125 295.6875 492.023438 C 295.085938 492.015625 294.484375 491.96875 293.886719 491.882812 C 293.285156 491.796875 292.691406 491.667969 292.101562 491.503906 C 291.515625 491.339844 290.933594 491.132812 290.359375 490.890625 C 289.785156 490.648438 289.21875 490.367188 288.667969 490.050781 C 288.113281 489.734375 287.574219 489.378906 287.046875 488.988281 C 286.519531 488.597656 286.007812 488.175781 285.511719 487.71875 C 285.015625 487.257812 284.539062 486.769531 284.078125 486.25 C 283.617188 485.726562 283.179688 485.175781 282.757812 484.59375 C 282.339844 484.015625 281.941406 483.40625 281.566406 482.773438 C 281.191406 482.140625 280.839844 481.484375 280.511719 480.804688 C 280.1875 480.125 279.886719 479.421875 279.609375 478.703125 C 279.332031 477.980469 279.085938 477.242188 278.863281 476.488281 C 278.640625 475.734375 278.445312 474.964844 278.28125 474.183594 C 278.113281 473.40625 277.976562 472.613281 277.867188 471.816406 C 277.761719 471.015625 277.679688 470.210938 277.632812 469.398438 C 277.582031 468.589844 277.5625 467.777344 277.570312 466.964844 C 277.582031 466.148438 277.617188 465.335938 277.6875 464.527344 C 277.757812 463.71875 277.851562 462.917969 277.980469 462.121094 C 278.105469 461.324219 278.261719 460.535156 278.445312 459.757812 C 278.628906 458.984375 278.84375 458.21875 279.082031 457.46875 C 279.320312 456.722656 279.585938 455.988281 279.878906 455.273438 C 280.171875 454.558594 280.488281 453.867188 280.832031 453.195312 C 281.175781 452.519531 281.539062 451.871094 281.929688 451.246094 C 282.320312 450.625 282.730469 450.027344 283.164062 449.453125 C 283.597656 448.882812 284.046875 448.34375 284.519531 447.832031 C 284.992188 447.320312 285.480469 446.84375 285.988281 446.398438 C 286.496094 445.949219 287.015625 445.539062 287.550781 445.160156 C 288.085938 444.785156 288.636719 444.441406 289.195312 444.136719 C 289.757812 443.832031 290.328125 443.566406 290.90625 443.335938 C 291.484375 443.105469 292.070312 442.914062 292.664062 442.761719 C 293.257812 442.609375 293.855469 442.5 294.457031 442.425781 C 295.054688 442.351562 295.65625 442.320312 296.261719 442.328125 Z M 296.261719 442.328125 " fill-opacity="1" fill-rule="nonzero"/><path fill="#1e3b77" d="M 253.617188 457.511719 C 254.421875 457.519531 255.21875 457.632812 256.007812 457.851562 C 256.792969 458.070312 257.558594 458.386719 258.296875 458.804688 C 259.039062 459.222656 259.738281 459.730469 260.402344 460.332031 C 261.066406 460.929688 261.675781 461.613281 262.238281 462.375 C 262.800781 463.136719 263.296875 463.960938 263.734375 464.855469 C 264.171875 465.75 264.539062 466.691406 264.835938 467.679688 C 265.132812 468.667969 265.355469 469.6875 265.5 470.738281 C 265.644531 471.785156 265.710938 472.84375 265.699219 473.914062 C 265.6875 474.980469 265.597656 476.035156 265.425781 477.082031 C 265.257812 478.125 265.011719 479.140625 264.695312 480.125 C 264.375 481.105469 263.984375 482.039062 263.527344 482.921875 C 263.070312 483.804688 262.550781 484.621094 261.972656 485.367188 C 261.394531 486.117188 260.765625 486.78125 260.089844 487.367188 C 259.414062 487.953125 258.699219 488.445312 257.953125 488.847656 C 257.203125 489.246094 256.433594 489.546875 255.640625 489.746094 C 254.847656 489.945312 254.046875 490.039062 253.242188 490.03125 C 252.4375 490.019531 251.640625 489.90625 250.851562 489.691406 C 250.0625 489.472656 249.300781 489.15625 248.558594 488.738281 C 247.820312 488.320312 247.117188 487.8125 246.457031 487.210938 C 245.792969 486.609375 245.179688 485.929688 244.621094 485.167969 C 244.058594 484.40625 243.558594 483.578125 243.121094 482.6875 C 242.683594 481.792969 242.316406 480.851562 242.019531 479.863281 C 241.722656 478.871094 241.503906 477.851562 241.355469 476.804688 C 241.210938 475.753906 241.144531 474.699219 241.15625 473.628906 C 241.171875 472.5625 241.261719 471.503906 241.429688 470.460938 C 241.597656 469.414062 241.84375 468.402344 242.164062 467.417969 C 242.484375 466.4375 242.871094 465.503906 243.332031 464.621094 C 243.789062 463.738281 244.304688 462.921875 244.882812 462.175781 C 245.464844 461.425781 246.089844 460.757812 246.765625 460.171875 C 247.445312 459.589844 248.15625 459.09375 248.90625 458.695312 C 249.65625 458.296875 250.425781 457.996094 251.21875 457.796875 C 252.011719 457.597656 252.808594 457.503906 253.617188 457.511719 Z M 253.617188 457.511719 " fill-opacity="1" fill-rule="nonzero"/><path fill="#1e3b77" d="M 292.515625 457.59375 C 293.320312 457.601562 294.117188 457.714844 294.90625 457.933594 C 295.691406 458.152344 296.457031 458.46875 297.195312 458.886719 C 297.9375 459.300781 298.636719 459.8125 299.300781 460.414062 C 299.964844 461.011719 300.574219 461.695312 301.136719 462.457031 C 301.699219 463.21875 302.195312 464.042969 302.632812 464.9375 C 303.070312 465.828125 303.4375 466.769531 303.734375 467.761719 C 304.03125 468.75 304.253906 469.769531 304.398438 470.820312 C 304.542969 471.867188 304.609375 472.925781 304.597656 473.992188 C 304.585938 475.0625 304.496094 476.117188 304.328125 477.164062 C 304.15625 478.207031 303.914062 479.222656 303.59375 480.207031 C 303.273438 481.1875 302.882812 482.121094 302.425781 483.003906 C 301.96875 483.886719 301.449219 484.699219 300.871094 485.449219 C 300.292969 486.199219 299.667969 486.863281 298.988281 487.449219 C 298.3125 488.035156 297.597656 488.527344 296.851562 488.929688 C 296.101562 489.328125 295.332031 489.628906 294.539062 489.828125 C 293.746094 490.027344 292.945312 490.121094 292.140625 490.113281 C 291.335938 490.101562 290.539062 489.988281 289.75 489.773438 C 288.960938 489.554688 288.199219 489.238281 287.457031 488.820312 C 286.71875 488.402344 286.019531 487.894531 285.355469 487.292969 C 284.691406 486.691406 284.078125 486.011719 283.519531 485.25 C 282.957031 484.488281 282.457031 483.660156 282.019531 482.769531 C 281.582031 481.875 281.214844 480.933594 280.917969 479.945312 C 280.621094 478.953125 280.402344 477.933594 280.257812 476.886719 C 280.109375 475.835938 280.042969 474.777344 280.058594 473.710938 C 280.070312 472.644531 280.160156 471.585938 280.328125 470.542969 C 280.5 469.496094 280.742188 468.484375 281.0625 467.5 C 281.382812 466.515625 281.769531 465.585938 282.230469 464.703125 C 282.6875 463.820312 283.203125 463.003906 283.785156 462.253906 C 284.363281 461.507812 284.988281 460.839844 285.667969 460.253906 C 286.34375 459.667969 287.054688 459.175781 287.804688 458.777344 C 288.554688 458.378906 289.324219 458.078125 290.117188 457.878906 C 290.910156 457.679688 291.710938 457.585938 292.515625 457.59375 Z M 292.515625 457.59375 " fill-opacity="1" fill-rule="nonzero"/><path fill="#1e3b77" d="M 274.542969 498.585938 C 271.191406 498.53125 268.101562 497.597656 265.273438 495.792969 C 265.09375 495.664062 264.988281 495.492188 264.949219 495.277344 C 264.914062 495.0625 264.957031 494.863281 265.085938 494.683594 C 265.210938 494.503906 265.382812 494.394531 265.601562 494.359375 C 265.816406 494.324219 266.015625 494.367188 266.195312 494.496094 C 266.5625 494.75 275.226562 500.726562 283.527344 493.425781 C 283.695312 493.296875 283.882812 493.242188 284.09375 493.261719 C 284.304688 493.28125 284.476562 493.371094 284.617188 493.53125 C 284.753906 493.691406 284.820312 493.878906 284.808594 494.089844 C 284.800781 494.296875 284.71875 494.476562 284.566406 494.625 C 283.203125 495.886719 281.65625 496.863281 279.925781 497.546875 C 278.199219 498.230469 276.402344 498.574219 274.542969 498.585938 Z M 274.542969 498.585938 " fill-opacity="1" fill-rule="nonzero"/><path fill="#1e3b77" d="M 302.484375 459.289062 C 303.292969 461.367188 305.179688 462.625 306.691406 462.042969 C 308.203125 461.460938 308.769531 459.277344 307.957031 457.175781 C 307.148438 455.074219 305.261719 453.839844 303.75 454.421875 C 302.238281 455.003906 301.667969 457.1875 302.484375 459.289062 Z M 302.484375 459.289062 " fill-opacity="1" fill-rule="nonzero"/><path fill="#1e3b77" d="M 243.964844 459.578125 C 243.285156 461.730469 241.484375 463.074219 239.941406 462.585938 C 238.398438 462.097656 237.691406 459.964844 238.382812 457.8125 C 239.074219 455.664062 240.867188 454.320312 242.410156 454.808594 C 243.949219 455.296875 244.648438 457.429688 243.964844 459.578125 Z M 243.964844 459.578125 " fill-opacity="1" fill-rule="nonzero"/><path fill="#1e3b77" d="M 305.320312 497.765625 C 304.324219 497.765625 303.332031 497.71875 302.339844 497.621094 C 301.351562 497.523438 300.367188 497.378906 299.390625 497.183594 C 298.417969 496.992188 297.453125 496.75 296.5 496.460938 C 295.546875 496.171875 294.613281 495.839844 293.691406 495.460938 C 292.773438 495.078125 291.875 494.652344 290.996094 494.1875 C 290.121094 493.71875 289.265625 493.207031 288.4375 492.652344 C 287.613281 492.101562 286.8125 491.511719 286.042969 490.878906 C 285.273438 490.25 284.539062 489.582031 283.835938 488.878906 C 283.128906 488.175781 282.460938 487.4375 281.832031 486.667969 C 281.199219 485.902344 280.605469 485.101562 280.054688 484.277344 C 279.5 483.449219 278.988281 482.597656 278.519531 481.71875 C 278.050781 480.839844 277.625 479.945312 277.246094 479.023438 C 276.863281 478.105469 276.527344 477.167969 276.238281 476.21875 C 275.949219 475.265625 275.707031 474.300781 275.515625 473.324219 C 275.320312 472.351562 275.171875 471.367188 275.074219 470.378906 C 274.976562 469.386719 274.929688 468.394531 274.929688 467.398438 C 274.929688 466.40625 274.976562 465.410156 275.074219 464.421875 C 275.171875 463.429688 275.316406 462.449219 275.511719 461.472656 C 275.703125 460.496094 275.945312 459.53125 276.234375 458.582031 C 276.523438 457.628906 276.859375 456.691406 277.238281 455.773438 C 277.617188 454.855469 278.042969 453.957031 278.511719 453.078125 C 278.980469 452.199219 279.492188 451.347656 280.042969 450.519531 C 280.597656 449.691406 281.1875 448.894531 281.820312 448.125 C 282.449219 447.355469 283.117188 446.621094 283.820312 445.914062 C 284.523438 445.210938 285.261719 444.542969 286.03125 443.914062 C 286.800781 443.28125 287.597656 442.691406 288.425781 442.136719 C 289.253906 441.585938 290.105469 441.074219 290.980469 440.605469 C 291.859375 440.136719 292.757812 439.710938 293.675781 439.328125 C 294.597656 438.949219 295.53125 438.613281 296.484375 438.324219 C 297.4375 438.035156 298.398438 437.792969 299.375 437.597656 C 300.351562 437.40625 301.335938 437.257812 302.324219 437.160156 C 303.316406 437.0625 304.308594 437.015625 305.300781 437.015625 C 306.296875 437.015625 307.289062 437.0625 308.28125 437.160156 C 309.269531 437.257812 310.253906 437.40625 311.230469 437.597656 C 312.203125 437.792969 313.167969 438.035156 314.121094 438.324219 C 315.074219 438.613281 316.007812 438.945312 316.929688 439.328125 C 317.847656 439.707031 318.746094 440.132812 319.625 440.601562 C 320.5 441.070312 321.351562 441.582031 322.179688 442.136719 C 323.007812 442.6875 323.804688 443.28125 324.574219 443.910156 C 325.34375 444.542969 326.082031 445.210938 326.785156 445.914062 C 327.488281 446.617188 328.15625 447.351562 328.785156 448.121094 C 329.417969 448.890625 330.007812 449.691406 330.5625 450.515625 C 331.113281 451.34375 331.625 452.195312 332.09375 453.074219 C 332.5625 453.953125 332.988281 454.851562 333.367188 455.769531 C 333.75 456.6875 334.082031 457.625 334.371094 458.578125 C 334.660156 459.527344 334.902344 460.492188 335.097656 461.46875 C 335.289062 462.445312 335.4375 463.429688 335.535156 464.417969 C 335.628906 465.410156 335.679688 466.402344 335.679688 467.394531 C 335.679688 468.390625 335.628906 469.382812 335.53125 470.371094 C 335.429688 471.359375 335.285156 472.34375 335.089844 473.316406 C 334.894531 474.292969 334.652344 475.253906 334.363281 476.207031 C 334.074219 477.15625 333.738281 478.089844 333.359375 479.011719 C 332.976562 479.929688 332.554688 480.824219 332.085938 481.703125 C 331.613281 482.578125 331.105469 483.429688 330.550781 484.257812 C 330 485.082031 329.40625 485.878906 328.777344 486.648438 C 328.148438 487.417969 327.480469 488.152344 326.777344 488.855469 C 326.074219 489.558594 325.339844 490.226562 324.570312 490.859375 C 323.800781 491.488281 323.003906 492.082031 322.179688 492.632812 C 321.351562 493.1875 320.5 493.695312 319.625 494.164062 C 318.75 494.636719 317.851562 495.058594 316.933594 495.441406 C 316.015625 495.824219 315.082031 496.15625 314.128906 496.449219 C 313.179688 496.738281 312.214844 496.980469 311.242188 497.175781 C 310.265625 497.371094 309.285156 497.515625 308.292969 497.617188 C 307.304688 497.714844 306.3125 497.765625 305.320312 497.765625 Z M 305.320312 438.296875 C 304.367188 438.296875 303.417969 438.34375 302.46875 438.4375 C 301.519531 438.53125 300.582031 438.671875 299.644531 438.855469 C 298.710938 439.042969 297.789062 439.273438 296.878906 439.550781 C 295.964844 439.828125 295.070312 440.148438 294.191406 440.511719 C 293.308594 440.875 292.449219 441.28125 291.609375 441.730469 C 290.769531 442.179688 289.953125 442.671875 289.164062 443.199219 C 288.371094 443.730469 287.605469 444.296875 286.871094 444.898438 C 286.132812 445.503906 285.429688 446.144531 284.753906 446.816406 C 284.082031 447.488281 283.441406 448.195312 282.839844 448.929688 C 282.234375 449.667969 281.667969 450.429688 281.136719 451.222656 C 280.609375 452.015625 280.121094 452.832031 279.671875 453.671875 C 279.222656 454.511719 278.816406 455.371094 278.449219 456.25 C 278.085938 457.132812 277.765625 458.027344 277.488281 458.9375 C 277.214844 459.851562 276.980469 460.773438 276.796875 461.707031 C 276.609375 462.640625 276.472656 463.582031 276.378906 464.53125 C 276.285156 465.476562 276.238281 466.429688 276.238281 467.378906 C 276.238281 468.332031 276.285156 469.28125 276.378906 470.230469 C 276.472656 471.179688 276.609375 472.121094 276.796875 473.054688 C 276.980469 473.988281 277.214844 474.910156 277.488281 475.824219 C 277.765625 476.734375 278.085938 477.628906 278.449219 478.507812 C 278.816406 479.390625 279.222656 480.25 279.671875 481.089844 C 280.121094 481.929688 280.609375 482.746094 281.136719 483.539062 C 281.667969 484.328125 282.234375 485.09375 282.839844 485.828125 C 283.441406 486.566406 284.082031 487.269531 284.753906 487.945312 C 285.429688 488.617188 286.132812 489.257812 286.871094 489.859375 C 287.605469 490.464844 288.371094 491.03125 289.164062 491.5625 C 289.953125 492.089844 290.769531 492.578125 291.609375 493.027344 C 292.449219 493.476562 293.308594 493.882812 294.191406 494.25 C 295.070312 494.613281 295.964844 494.933594 296.878906 495.210938 C 297.789062 495.488281 298.710938 495.71875 299.644531 495.902344 C 300.582031 496.089844 301.519531 496.230469 302.46875 496.324219 C 303.417969 496.414062 304.367188 496.460938 305.320312 496.460938 C 306.273438 496.460938 307.222656 496.414062 308.171875 496.324219 C 309.117188 496.230469 310.058594 496.089844 310.992188 495.902344 C 311.925781 495.71875 312.851562 495.488281 313.761719 495.210938 C 314.671875 494.933594 315.570312 494.613281 316.449219 494.25 C 317.328125 493.882812 318.1875 493.476562 319.027344 493.027344 C 319.867188 492.578125 320.683594 492.089844 321.476562 491.5625 C 322.269531 491.03125 323.03125 490.464844 323.769531 489.859375 C 324.503906 489.257812 325.210938 488.617188 325.882812 487.945312 C 326.558594 487.269531 327.195312 486.566406 327.800781 485.828125 C 328.40625 485.09375 328.972656 484.328125 329.5 483.539062 C 330.03125 482.746094 330.519531 481.929688 330.96875 481.089844 C 331.417969 480.25 331.824219 479.390625 332.1875 478.507812 C 332.550781 477.628906 332.871094 476.734375 333.148438 475.824219 C 333.425781 474.910156 333.65625 473.988281 333.84375 473.054688 C 334.027344 472.121094 334.167969 471.179688 334.261719 470.230469 C 334.355469 469.28125 334.402344 468.332031 334.402344 467.378906 C 334.398438 466.429688 334.351562 465.480469 334.257812 464.53125 C 334.164062 463.582031 334.023438 462.644531 333.835938 461.710938 C 333.648438 460.777344 333.417969 459.855469 333.140625 458.945312 C 332.863281 458.03125 332.539062 457.136719 332.175781 456.257812 C 331.808594 455.378906 331.402344 454.519531 330.953125 453.679688 C 330.503906 452.839844 330.015625 452.027344 329.484375 451.234375 C 328.957031 450.441406 328.390625 449.679688 327.785156 448.941406 C 327.183594 448.207031 326.542969 447.503906 325.871094 446.828125 C 325.195312 446.15625 324.492188 445.519531 323.757812 444.914062 C 323.019531 444.308594 322.257812 443.742188 321.464844 443.214844 C 320.675781 442.683594 319.859375 442.195312 319.019531 441.746094 C 318.179688 441.296875 317.320312 440.890625 316.441406 440.523438 C 315.5625 440.160156 314.667969 439.839844 313.757812 439.5625 C 312.84375 439.285156 311.921875 439.050781 310.988281 438.863281 C 310.054688 438.679688 309.117188 438.535156 308.167969 438.441406 C 307.222656 438.347656 306.273438 438.300781 305.320312 438.296875 Z M 305.320312 438.296875 " fill-opacity="1" fill-rule="nonzero"/><path fill="#1e3b77" d="M 241.328125 498.808594 C 240.332031 498.808594 239.339844 498.761719 238.351562 498.664062 C 237.359375 498.566406 236.378906 498.421875 235.402344 498.226562 C 234.425781 498.03125 233.460938 497.789062 232.511719 497.5 C 231.558594 497.214844 230.625 496.878906 229.703125 496.496094 C 228.785156 496.117188 227.886719 495.691406 227.007812 495.222656 C 226.132812 494.753906 225.28125 494.242188 224.453125 493.691406 C 223.625 493.136719 222.828125 492.546875 222.058594 491.914062 C 221.289062 491.285156 220.554688 490.617188 219.847656 489.914062 C 219.144531 489.207031 218.480469 488.472656 217.847656 487.703125 C 217.214844 486.933594 216.625 486.136719 216.070312 485.308594 C 215.519531 484.480469 215.007812 483.628906 214.539062 482.753906 C 214.070312 481.875 213.644531 480.976562 213.265625 480.058594 C 212.882812 479.136719 212.550781 478.203125 212.261719 477.25 C 211.972656 476.296875 211.730469 475.335938 211.535156 474.359375 C 211.34375 473.382812 211.195312 472.398438 211.097656 471.410156 C 211 470.421875 210.953125 469.425781 210.953125 468.433594 C 210.953125 467.4375 211.003906 466.445312 211.101562 465.457031 C 211.199219 464.464844 211.34375 463.484375 211.539062 462.507812 C 211.730469 461.53125 211.972656 460.566406 212.261719 459.613281 C 212.550781 458.664062 212.886719 457.726562 213.265625 456.808594 C 213.648438 455.890625 214.070312 454.992188 214.539062 454.113281 C 215.011719 453.238281 215.519531 452.382812 216.074219 451.558594 C 216.625 450.730469 217.21875 449.933594 217.851562 449.164062 C 218.480469 448.394531 219.148438 447.65625 219.851562 446.953125 C 220.554688 446.25 221.292969 445.582031 222.0625 444.953125 C 222.828125 444.320312 223.628906 443.730469 224.457031 443.175781 C 225.28125 442.625 226.136719 442.113281 227.011719 441.644531 C 227.890625 441.175781 228.789062 440.75 229.707031 440.371094 C 230.625 439.988281 231.5625 439.65625 232.515625 439.367188 C 233.464844 439.078125 234.429688 438.835938 235.40625 438.640625 C 236.382812 438.449219 237.363281 438.300781 238.355469 438.207031 C 239.34375 438.109375 240.335938 438.058594 241.332031 438.058594 C 242.328125 438.058594 243.320312 438.109375 244.308594 438.207031 C 245.300781 438.304688 246.28125 438.449219 247.257812 438.644531 C 248.234375 438.835938 249.199219 439.078125 250.148438 439.367188 C 251.101562 439.65625 252.039062 439.992188 252.957031 440.371094 C 253.875 440.753906 254.773438 441.179688 255.652344 441.648438 C 256.527344 442.117188 257.378906 442.628906 258.207031 443.179688 C 259.035156 443.734375 259.832031 444.324219 260.601562 444.957031 C 261.371094 445.589844 262.105469 446.253906 262.808594 446.960938 C 263.511719 447.664062 264.179688 448.398438 264.8125 449.167969 C 265.441406 449.9375 266.035156 450.734375 266.585938 451.5625 C 267.140625 452.390625 267.652344 453.242188 268.121094 454.121094 C 268.589844 454.996094 269.011719 455.894531 269.394531 456.816406 C 269.773438 457.734375 270.109375 458.667969 270.398438 459.621094 C 270.6875 460.574219 270.925781 461.539062 271.121094 462.511719 C 271.316406 463.488281 271.460938 464.472656 271.558594 465.460938 C 271.65625 466.453125 271.703125 467.445312 271.703125 468.441406 C 271.703125 469.433594 271.652344 470.425781 271.554688 471.414062 C 271.457031 472.40625 271.308594 473.386719 271.113281 474.363281 C 270.917969 475.339844 270.675781 476.300781 270.386719 477.253906 C 270.097656 478.203125 269.761719 479.140625 269.382812 480.058594 C 269 480.976562 268.574219 481.875 268.105469 482.75 C 267.636719 483.628906 267.125 484.480469 266.574219 485.304688 C 266.019531 486.132812 265.429688 486.929688 264.796875 487.699219 C 264.167969 488.46875 263.5 489.203125 262.796875 489.90625 C 262.09375 490.609375 261.355469 491.277344 260.589844 491.90625 C 259.820312 492.539062 259.023438 493.128906 258.195312 493.683594 C 257.367188 494.234375 256.515625 494.746094 255.640625 495.214844 C 254.761719 495.683594 253.863281 496.109375 252.945312 496.488281 C 252.027344 496.871094 251.09375 497.207031 250.140625 497.496094 C 249.191406 497.785156 248.226562 498.027344 247.25 498.222656 C 246.277344 498.414062 245.292969 498.5625 244.304688 498.660156 C 243.316406 498.757812 242.324219 498.808594 241.328125 498.808594 Z M 241.328125 439.335938 C 240.375 439.335938 239.425781 439.382812 238.476562 439.476562 C 237.53125 439.570312 236.589844 439.710938 235.65625 439.894531 C 234.71875 440.082031 233.796875 440.3125 232.886719 440.589844 C 231.976562 440.867188 231.078125 441.1875 230.199219 441.550781 C 229.320312 441.914062 228.460938 442.320312 227.621094 442.769531 C 226.777344 443.21875 225.964844 443.707031 225.171875 444.238281 C 224.378906 444.765625 223.617188 445.332031 222.878906 445.9375 C 222.144531 446.542969 221.4375 447.179688 220.765625 447.855469 C 220.089844 448.527344 219.453125 449.234375 218.847656 449.96875 C 218.242188 450.707031 217.675781 451.46875 217.148438 452.261719 C 216.617188 453.054688 216.128906 453.871094 215.679688 454.710938 C 215.230469 455.550781 214.824219 456.410156 214.460938 457.289062 C 214.09375 458.167969 213.773438 459.066406 213.5 459.976562 C 213.222656 460.886719 212.992188 461.8125 212.804688 462.746094 C 212.621094 463.679688 212.480469 464.621094 212.386719 465.570312 C 212.292969 466.515625 212.246094 467.464844 212.246094 468.417969 C 212.246094 469.371094 212.292969 470.320312 212.386719 471.269531 C 212.480469 472.21875 212.621094 473.160156 212.804688 474.09375 C 212.992188 475.027344 213.222656 475.949219 213.5 476.859375 C 213.773438 477.773438 214.09375 478.667969 214.460938 479.546875 C 214.824219 480.429688 215.230469 481.289062 215.679688 482.128906 C 216.128906 482.96875 216.617188 483.785156 217.148438 484.574219 C 217.675781 485.367188 218.242188 486.132812 218.847656 486.867188 C 219.453125 487.605469 220.089844 488.308594 220.765625 488.984375 C 221.4375 489.65625 222.144531 490.296875 222.878906 490.898438 C 223.617188 491.503906 224.378906 492.070312 225.171875 492.601562 C 225.964844 493.128906 226.777344 493.617188 227.621094 494.066406 C 228.460938 494.515625 229.320312 494.921875 230.199219 495.289062 C 231.078125 495.652344 231.976562 495.972656 232.886719 496.25 C 233.796875 496.523438 234.71875 496.757812 235.65625 496.941406 C 236.589844 497.128906 237.53125 497.269531 238.476562 497.359375 C 239.425781 497.453125 240.375 497.5 241.328125 497.5 C 242.28125 497.5 243.230469 497.453125 244.179688 497.359375 C 245.125 497.269531 246.066406 497.128906 247.003906 496.941406 C 247.9375 496.757812 248.859375 496.523438 249.769531 496.25 C 250.683594 495.972656 251.578125 495.652344 252.457031 495.289062 C 253.335938 494.921875 254.199219 494.515625 255.039062 494.066406 C 255.878906 493.617188 256.695312 493.128906 257.484375 492.601562 C 258.277344 492.070312 259.042969 491.503906 259.777344 490.898438 C 260.515625 490.296875 261.21875 489.65625 261.894531 488.984375 C 262.566406 488.308594 263.203125 487.605469 263.808594 486.867188 C 264.414062 486.132812 264.980469 485.367188 265.507812 484.574219 C 266.039062 483.785156 266.527344 482.96875 266.976562 482.128906 C 267.425781 481.289062 267.832031 480.429688 268.195312 479.546875 C 268.5625 478.667969 268.882812 477.773438 269.160156 476.859375 C 269.433594 475.949219 269.664062 475.027344 269.851562 474.09375 C 270.039062 473.160156 270.175781 472.21875 270.269531 471.269531 C 270.363281 470.320312 270.410156 469.371094 270.410156 468.417969 C 270.410156 467.46875 270.359375 466.515625 270.265625 465.570312 C 270.171875 464.621094 270.03125 463.683594 269.84375 462.75 C 269.65625 461.816406 269.425781 460.894531 269.148438 459.984375 C 268.871094 459.070312 268.546875 458.175781 268.183594 457.296875 C 267.816406 456.417969 267.410156 455.558594 266.960938 454.71875 C 266.511719 453.878906 266.023438 453.066406 265.492188 452.273438 C 264.964844 451.484375 264.398438 450.71875 263.792969 449.984375 C 263.1875 449.246094 262.550781 448.542969 261.878906 447.871094 C 261.203125 447.195312 260.5 446.558594 259.765625 445.953125 C 259.027344 445.351562 258.265625 444.785156 257.472656 444.253906 C 256.683594 443.726562 255.867188 443.234375 255.027344 442.785156 C 254.1875 442.335938 253.328125 441.929688 252.449219 441.5625 C 251.570312 441.199219 250.675781 440.878906 249.765625 440.601562 C 248.855469 440.324219 247.933594 440.089844 247 439.902344 C 246.066406 439.71875 245.125 439.578125 244.175781 439.480469 C 243.230469 439.386719 242.28125 439.339844 241.328125 439.335938 Z M 241.328125 439.335938 " fill-opacity="1" fill-rule="nonzero"/><path fill="#ffffff" d="M 203.019531 495.890625 L 206.886719 489.730469 C 207.046875 489.476562 207.242188 489.253906 207.476562 489.0625 C 207.707031 488.871094 207.964844 488.722656 208.246094 488.613281 C 208.527344 488.507812 208.816406 488.445312 209.117188 488.429688 C 209.417969 488.417969 209.714844 488.449219 210.003906 488.53125 C 213.273438 489.46875 220.695312 491.066406 232.753906 490.929688 C 247.871094 490.761719 265.113281 503.035156 270.917969 510.664062 C 271.132812 510.941406 271.394531 511.164062 271.703125 511.328125 C 272.011719 511.488281 272.34375 511.582031 272.691406 511.601562 C 273.042969 511.617188 273.378906 511.5625 273.703125 511.433594 C 274.027344 511.304688 274.3125 511.117188 274.554688 510.863281 C 279.089844 506.097656 290.503906 495.335938 303.839844 492.257812 C 319.777344 488.578125 328.9375 491.839844 338.011719 489.699219 C 338.339844 489.625 338.671875 489.605469 339.003906 489.648438 C 339.339844 489.695312 339.65625 489.796875 339.953125 489.953125 C 340.25 490.113281 340.511719 490.316406 340.734375 490.570312 C 340.957031 490.824219 341.128906 491.109375 341.246094 491.425781 L 343.574219 497.578125 L 316.019531 527.050781 C 316.019531 527.050781 276.09375 535.410156 273.046875 535.605469 C 270.003906 535.796875 242.824219 534.652344 239.589844 531.417969 C 236.351562 528.183594 203.019531 495.890625 203.019531 495.890625 Z M 203.019531 495.890625 " fill-opacity="1" fill-rule="nonzero"/><g clip-path="url(#c860eb5697)"><path fill="#1e3b77" d="M 197.15625 493.8125 L 264.273438 517.753906 C 264.738281 517.921875 265.117188 518.207031 265.402344 518.609375 C 265.6875 519.015625 265.832031 519.464844 265.832031 519.960938 L 265.832031 520.144531 C 265.832031 520.453125 265.890625 520.753906 266.007812 521.042969 C 266.128906 521.328125 266.296875 521.582031 266.519531 521.804688 C 266.738281 522.023438 266.992188 522.191406 267.277344 522.3125 C 267.566406 522.429688 267.867188 522.492188 268.175781 522.492188 L 277.007812 522.492188 C 277.316406 522.492188 277.617188 522.429688 277.902344 522.3125 C 278.191406 522.191406 278.445312 522.023438 278.664062 521.804688 C 278.882812 521.582031 279.054688 521.328125 279.171875 521.042969 C 279.289062 520.753906 279.347656 520.453125 279.347656 520.144531 L 279.347656 519.828125 C 279.347656 519.316406 279.5 518.855469 279.800781 518.445312 C 280.101562 518.03125 280.492188 517.75 280.980469 517.59375 L 349.078125 495.710938 C 349.320312 495.632812 349.570312 495.582031 349.824219 495.5625 C 350.082031 495.542969 350.335938 495.554688 350.585938 495.59375 C 350.839844 495.632812 351.085938 495.703125 351.320312 495.800781 C 351.558594 495.898438 351.78125 496.023438 351.988281 496.171875 C 352.195312 496.320312 352.382812 496.492188 352.550781 496.6875 C 352.714844 496.882812 352.859375 497.09375 352.976562 497.320312 C 353.09375 497.546875 353.183594 497.785156 353.246094 498.03125 C 353.308594 498.28125 353.339844 498.53125 353.339844 498.789062 L 354.042969 584.265625 C 354.046875 584.640625 353.988281 585.003906 353.863281 585.359375 C 353.742188 585.714844 353.5625 586.039062 353.328125 586.332031 C 353.097656 586.625 352.820312 586.871094 352.5 587.070312 C 352.179688 587.265625 351.839844 587.40625 351.472656 587.484375 C 341.734375 589.5625 306.785156 597.71875 284.527344 610.542969 C 284.042969 610.820312 283.660156 611.203125 283.382812 611.691406 C 283.101562 612.175781 282.964844 612.699219 282.96875 613.257812 L 282.96875 613.550781 C 282.96875 613.929688 282.894531 614.292969 282.75 614.640625 C 282.605469 614.992188 282.398438 615.300781 282.132812 615.570312 C 281.863281 615.835938 281.554688 616.042969 281.203125 616.1875 C 280.855469 616.332031 280.492188 616.40625 280.113281 616.40625 L 266.667969 616.40625 C 266.296875 616.40625 265.941406 616.335938 265.601562 616.199219 C 265.257812 616.0625 264.953125 615.867188 264.6875 615.613281 C 264.421875 615.355469 264.210938 615.0625 264.0625 614.726562 C 263.910156 614.390625 263.824219 614.035156 263.808594 613.667969 C 263.789062 613.101562 263.625 612.578125 263.316406 612.097656 C 263.011719 611.621094 262.605469 611.253906 262.097656 611 C 254.304688 607.050781 220.453125 590.449219 195.148438 587.417969 C 194.753906 587.371094 194.378906 587.253906 194.023438 587.070312 C 193.667969 586.886719 193.359375 586.644531 193.09375 586.34375 C 192.828125 586.046875 192.625 585.710938 192.484375 585.335938 C 192.34375 584.960938 192.273438 584.574219 192.273438 584.175781 L 192.792969 496.878906 C 192.792969 496.617188 192.824219 496.359375 192.886719 496.105469 C 192.945312 495.851562 193.039062 495.609375 193.160156 495.375 C 193.28125 495.144531 193.425781 494.929688 193.597656 494.730469 C 193.769531 494.535156 193.964844 494.363281 194.175781 494.210938 C 194.390625 494.0625 194.621094 493.9375 194.863281 493.84375 C 195.105469 493.75 195.359375 493.683594 195.617188 493.648438 C 195.875 493.613281 196.136719 493.609375 196.394531 493.640625 C 196.65625 493.667969 196.910156 493.726562 197.15625 493.8125 Z M 197.15625 493.8125 " fill-opacity="1" fill-rule="nonzero"/></g><path fill="#ffffff" d="M 348.238281 518.84375 C 348.019531 518.84375 347.832031 518.769531 347.679688 518.617188 C 347.523438 518.464844 347.445312 518.277344 347.441406 518.0625 L 347.253906 503.800781 L 332.328125 508.707031 C 332.121094 508.777344 331.917969 508.761719 331.722656 508.664062 C 331.527344 508.5625 331.394531 508.410156 331.324219 508.199219 C 331.257812 507.992188 331.273438 507.789062 331.371094 507.59375 C 331.472656 507.394531 331.628906 507.265625 331.835938 507.195312 L 347.1875 502.125 C 347.378906 502.058594 347.574219 502.042969 347.769531 502.074219 C 347.96875 502.105469 348.152344 502.175781 348.3125 502.292969 C 348.476562 502.410156 348.605469 502.558594 348.699219 502.734375 C 348.792969 502.910156 348.839844 503.101562 348.84375 503.300781 L 349.035156 518.019531 C 349.039062 518.238281 348.964844 518.425781 348.8125 518.585938 C 348.65625 518.742188 348.472656 518.820312 348.253906 518.824219 Z M 348.238281 518.84375 " fill-opacity="1" fill-rule="nonzero"/><path fill="#ffffff" d="M 348.875 557.550781 C 348.65625 557.550781 348.472656 557.472656 348.316406 557.320312 C 348.164062 557.167969 348.082031 556.984375 348.082031 556.765625 L 347.441406 523.011719 C 347.429688 522.898438 347.441406 522.789062 347.476562 522.683594 C 347.511719 522.578125 347.566406 522.484375 347.640625 522.402344 C 347.714844 522.316406 347.800781 522.253906 347.902344 522.207031 C 348.003906 522.160156 348.109375 522.136719 348.222656 522.132812 C 348.332031 522.128906 348.441406 522.152344 348.542969 522.195312 C 348.648438 522.234375 348.738281 522.296875 348.8125 522.378906 C 348.890625 522.457031 348.949219 522.550781 348.988281 522.65625 C 349.027344 522.761719 349.042969 522.867188 349.035156 522.980469 L 349.667969 556.734375 C 349.675781 556.953125 349.601562 557.144531 349.449219 557.300781 C 349.296875 557.460938 349.109375 557.539062 348.890625 557.546875 Z M 348.875 557.550781 " fill-opacity="1" fill-rule="nonzero"/><path fill="#ffffff" d="M 347.917969 560.289062 C 347.925781 560.148438 347.960938 560.019531 348.019531 559.894531 C 348.078125 559.769531 348.160156 559.660156 348.261719 559.570312 C 348.363281 559.476562 348.480469 559.40625 348.609375 559.363281 C 348.738281 559.316406 348.875 559.296875 349.011719 559.304688 C 349.148438 559.3125 349.28125 559.34375 349.402344 559.402344 C 349.527344 559.460938 349.636719 559.542969 349.730469 559.644531 C 349.820312 559.75 349.890625 559.863281 349.9375 559.996094 C 349.980469 560.125 350 560.257812 349.992188 560.394531 C 349.988281 560.535156 349.953125 560.664062 349.894531 560.789062 C 349.835938 560.914062 349.753906 561.019531 349.652344 561.113281 C 349.546875 561.207031 349.433594 561.273438 349.300781 561.320312 C 349.171875 561.367188 349.039062 561.386719 348.902344 561.378906 C 348.765625 561.371094 348.632812 561.335938 348.507812 561.277344 C 348.386719 561.21875 348.277344 561.136719 348.183594 561.035156 C 348.09375 560.933594 348.023438 560.816406 347.976562 560.6875 C 347.933594 560.558594 347.914062 560.425781 347.917969 560.289062 Z M 347.917969 560.289062 " fill-opacity="1" fill-rule="nonzero"/><path fill="#ffffff" d="M 347.917969 563.789062 C 347.925781 563.648438 347.957031 563.519531 348.015625 563.394531 C 348.074219 563.269531 348.15625 563.160156 348.257812 563.066406 C 348.359375 562.972656 348.476562 562.90625 348.605469 562.859375 C 348.738281 562.8125 348.871094 562.792969 349.007812 562.796875 C 349.144531 562.804688 349.277344 562.839844 349.402344 562.898438 C 349.527344 562.957031 349.636719 563.035156 349.726562 563.140625 C 349.820312 563.242188 349.890625 563.359375 349.9375 563.488281 C 349.980469 563.617188 350 563.75 349.996094 563.890625 C 349.988281 564.027344 349.953125 564.15625 349.894531 564.28125 C 349.835938 564.40625 349.753906 564.515625 349.652344 564.609375 C 349.550781 564.699219 349.433594 564.769531 349.304688 564.816406 C 349.171875 564.859375 349.039062 564.878906 348.902344 564.871094 C 348.765625 564.867188 348.632812 564.832031 348.511719 564.773438 C 348.386719 564.714844 348.277344 564.632812 348.1875 564.53125 C 348.09375 564.429688 348.027344 564.316406 347.980469 564.1875 C 347.933594 564.058594 347.914062 563.925781 347.917969 563.789062 Z M 347.917969 563.789062 " fill-opacity="1" fill-rule="nonzero"/></svg>